<?xml version="1.0" encoding="UTF-8" standalone="no"?>
<svg
   xmlns:dc="http://purl.org/dc/elements/1.1/"
   xmlns:cc="http://creativecommons.org/ns#"
   xmlns:rdf="http://www.w3.org/1999/02/22-rdf-syntax-ns#"
   xmlns:svg="http://www.w3.org/2000/svg"
   xmlns="http://www.w3.org/2000/svg"
   viewBox="0 0 162.66667 117.33333"
   height="117.33333"
   width="162.66667"
   xml:space="preserve"
   id="svg2"
   version="1.1"><metadata
     id="metadata8"><rdf:RDF><cc:Work
         rdf:about=""><dc:format>image/svg+xml</dc:format><dc:type
           rdf:resource="http://purl.org/dc/dcmitype/StillImage" /></cc:Work></rdf:RDF></metadata><defs
     id="defs6" /><g
     transform="matrix(1.3333333,0,0,-1.3333333,0,117.33333)"
     id="g10"><g
       transform="scale(0.1)"
       id="g12"><path
         id="path14"
         style="fill:#00adef;fill-opacity:1;fill-rule:evenodd;stroke:none"
         d="M 4.13672,153.688 H 124.84 c 41.574,0 75.59,-34.02 75.59,-75.5903 v 0 c 0,-6.2071 -0.77,-12.2383 -2.196,-18.0157 l 49.743,93.606 h 80.464 L 401.457,24.9023 V 152.473 h 197.66 l 36.563,-80.4691 31.379,54.3511 -16.028,27.762 h 68.801 l -11,-26.035 26.82,-58.5195 39.012,87.7855 h 52.426 l -12.192,-25.606 -0.242,-0.551 c 18.438,24.723 52.813,41.407 92.028,41.407 47.441,0 87.785,-24.418 101.416,-57.95 13.63,33.532 53.98,57.95 101.42,57.95 58.57,0 106.35,-37.231 106.35,-82.8714 0,-45.6446 -47.78,-82.87113 -106.35,-82.87113 -47.44,0 -87.79,24.41793 -101.42,57.94923 C 994.469,31.2734 954.125,6.85547 906.684,6.85547 c -58.575,0 -106.348,37.22653 -106.348,82.87113 0,3.664 0.309,7.2734 0.902,10.8204 L 763.125,13.4805 H 719.742 L 687.078,70.8672 653.895,14.207 H 610.066 L 558.867,120.77 h -98.75 V 97.6055 h 87.992 V 64.4609 H 459.465 V 42.7383 h 99.402 V 12.4922 H 271.074 l -20.476,32.3047 h 79.308 L 291.867,119.551 230.91,9.82422 h -59.383 l 9.477,17.83208 C 167.145,12.2422 147.074,2.50781 124.84,2.50781 H 90.7031 V 37.3711 h 9.9809 c 24.015,0 43.664,18.3281 43.664,40.7266 v 0 c 0,22.3983 -19.649,40.7263 -43.664,40.7263 H 59.0039 V 54.9336 37.3711 2.50781 H 4.13672 Z M 1109.5,142.043 c -28.79,0 -52.3,-23.512 -52.3,-52.336 0,-28.7851 23.51,-52.2968 52.3,-52.2968 28.82,0 52.34,23.5117 52.34,52.2968 0,28.824 -23.52,52.336 -52.34,52.336 z m -202.836,0 c -28.785,0 -52.297,-23.512 -52.297,-52.336 0,-28.7851 23.512,-52.2968 52.297,-52.2968 28.82,0 52.336,23.5117 52.336,52.2968 0,28.824 -23.516,52.336 -52.336,52.336" /><path
         id="path16"
         style="fill:#00adef;fill-opacity:1;fill-rule:evenodd;stroke:none"
         d="m 494.441,230.738 c 22.438,113.489 -40.554,233.524 -134.886,325.891 -49.16,48.133 -113.075,85.551 -183.957,92.801 -13.848,-31.465 -21.344,-64.95 -21.344,-99.66 0,-152.782 144.82,-281.852 340.187,-319.032 z m 115.563,648.848 c 14.519,0 28.871,-0.516 43.055,-1.488 -18.762,-223.801 -33.918,-447.071 -33.661,-658.055 -3.125,-0.051 -6.253,-0.09 -9.394,-0.09 -3.145,0 -6.274,0.039 -9.402,0.086 0.257,210.988 -14.895,434.258 -33.657,658.059 14.18,0.968 28.535,1.488 43.059,1.488 z m 148.492,-18.043 c 31.777,-7.965 61.973,-18.414 90.149,-31.016 -149.184,-227.148 -180.442,-416.828 -188.61,-608.57 -7.676,-0.609 -15.414,-1.086 -23.199,-1.414 5.73,183.816 10.473,366.789 121.66,641 z m 170.301,-76.48 c 24.961,-17.711 47.133,-37.477 65.984,-58.911 -203.461,-108.339 -300.5,-274.73 -291.136,-499.164 -7.508,-1.14 -15.086,-2.148 -22.723,-3.019 -2.129,181.383 25.738,364.765 247.875,561.094 z M 1044.4,649.43 c 13.85,-31.465 21.35,-64.95 21.35,-99.66 0,-152.778 -144.824,-281.852 -340.191,-319.032 -22.438,113.489 40.558,233.524 134.89,325.891 49.16,48.133 113.071,85.551 183.951,92.801 z M 583.168,220.543 c -7.789,0.328 -15.523,0.805 -23.203,1.414 -8.164,191.742 -39.422,381.422 -188.61,608.574 28.176,12.602 58.372,23.047 90.149,31.016 C 572.688,587.332 577.438,404.359 583.168,220.543 Z m -44.086,3.426 c -7.641,0.871 -15.219,1.879 -22.727,3.019 9.364,224.434 -87.675,390.825 -291.136,499.164 18.844,21.434 41.027,41.2 65.984,58.914 C 513.34,588.734 541.207,405.355 539.082,223.969" /></g></g></svg>